<svg xmlns="http://www.w3.org/2000/svg" fill="#2c3e50" viewBox="0 0 128 128"><title>icon11.1glyph</title><g id="fork_spoon" data-name="fork spoon"><path d="M55.22,9.43a3,3,0,0,0-2,.87,3,3,0,0,0-.87,2.11V29.08a4.59,4.59,0,0,1-4.16,4.63,4.49,4.49,0,0,1-4.82-4.48V12.65a3.35,3.35,0,0,0-1-2.4,2.86,2.86,0,0,0-2.08-.82,3,3,0,0,0-2,.87,3,3,0,0,0-.87,2.11V29.23a4.49,4.49,0,1,1-9,0V12.65a3.36,3.36,0,0,0-1-2.39,2.8,2.8,0,0,0-2-.83h-.08a2.94,2.94,0,0,0-2,.87,3,3,0,0,0-.88,2.11V35.27c0,6.89,5.66,12.55,10.5,15.3a7,7,0,0,1,3.54,6.64l-4.15,52.41a8.94,8.94,0,0,0,2.43,6.51,7.63,7.63,0,0,0,11.19,0,9,9,0,0,0,2.43-6.58L44.27,57.49a7,7,0,0,1,4.24-7A17.23,17.23,0,0,0,53,47.94a17.82,17.82,0,0,0,5.25-12.67V12.66a3.36,3.36,0,0,0-1-2.39A2.85,2.85,0,0,0,55.22,9.43Z"/><path d="M87.63,8.64A17.93,17.93,0,0,0,69.71,26.55v9.5c0,6.88,5.64,12.53,10.46,15.28A7,7,0,0,1,83.71,58L79.6,110.24a9.18,9.18,0,0,0,2.49,6.69,7.52,7.52,0,0,0,11.07,0,9.25,9.25,0,0,0,2.49-6.77L91.54,58a7,7,0,0,1,3.54-6.64c4.82-2.75,10.46-8.4,10.46-15.28v-9.5A17.91,17.91,0,0,0,87.63,8.64Zm9.91,19.91a2,2,0,0,1-2-2,7.92,7.92,0,0,0-7.91-7.91,2,2,0,0,1,0-4A11.93,11.93,0,0,1,99.54,26.55,2,2,0,0,1,97.54,28.55Z"/></g></svg>